<svg width="84" height="84" viewBox="0 0 84 84" fill="none" xmlns="http://www.w3.org/2000/svg">
<path d="M37.8 63H46.2V46.2H63V37.8H46.2V21H37.8V37.8H21V46.2H37.8V63ZM42 84C36.19 84 30.73 82.915 25.62 80.745C20.51 78.505 16.065 75.495 12.285 71.715C8.505 67.935 5.495 63.49 3.255 58.38C1.085 53.27 0 47.81 0 42C0 36.19 1.085 30.73 3.255 25.62C5.495 20.51 8.505 16.065 12.285 12.285C16.065 8.50499 20.51 5.52999 25.62 3.36C30.73 1.12 36.19 0 42 0C47.81 0 53.27 1.12 58.38 3.36C63.49 5.52999 67.935 8.50499 71.715 12.285C75.495 16.065 78.47 20.51 80.64 25.62C82.88 30.73 84 36.19 84 42C84 47.81 82.88 53.27 80.64 58.38C78.47 63.49 75.495 67.935 71.715 71.715C67.935 75.495 63.49 78.505 58.38 80.745C53.27 82.915 47.81 84 42 84ZM42 75.6C51.38 75.6 59.325 72.345 65.835 65.835C72.345 59.325 75.6 51.38 75.6 42C75.6 32.62 72.345 24.675 65.835 18.165C59.325 11.655 51.38 8.39999 42 8.39999C32.62 8.39999 24.675 11.655 18.165 18.165C11.655 24.675 8.4 32.62 8.4 42C8.4 51.38 11.655 59.325 18.165 65.835C24.675 72.345 32.62 75.6 42 75.6Z" fill="#B0FCFF"/>
</svg>
